<svg height="1700" version="1.1" width="1209.27" xmlns="http://www.w3.org/2000/svg" xmlns:xlink="http://www.w3.org/1999/xlink" style="overflow: hidden; position: relative; left: -0.766663px; top: -0.600006px;"><desc>Created with Raphaël 2.2.0</desc><defs></defs><path style="fill-opacity: 0.5;" fill="#000000" stroke="none" d="M215,20L225,24L225,16Z" fill-opacity="0.5"></path><rect x="0" y="0" width="40" height="1880" rx="0" ry="0" fill="#222222" stroke="#000" style=""></rect><rect x="40" y="0" width="30" height="1880" rx="0" ry="0" fill="#444444" stroke="#000" style=""></rect><text style="text-anchor: middle; font: 12px Monaco, monospace;" x="55" y="20" text-anchor="middle" font-family="&quot;Arial&quot;" font-size="10px" stroke="none" fill="#bbbbbb" font="12px Monaco, monospace"><tspan dy="4.2166666984558105">5</tspan></text><text style="text-anchor: middle; font: 12px Monaco, monospace;" x="20" y="20" text-anchor="middle" font-family="&quot;Arial&quot;" font-size="10px" stroke="none" fill="#eeeeee" font="12px Monaco, monospace"><tspan dy="4.2166666984558105">Feb</tspan></text><text style="text-anchor: middle; font: 12px Monaco, monospace;" x="55" y="80" text-anchor="middle" font-family="&quot;Arial&quot;" font-size="10px" stroke="none" fill="#bbbbbb" font="12px Monaco, monospace"><tspan dy="4.2166666984558105">4</tspan></text><text style="text-anchor: middle; font: 12px Monaco, monospace;" x="55" y="230" text-anchor="middle" font-family="&quot;Arial&quot;" font-size="10px" stroke="none" fill="#bbbbbb" font="12px Monaco, monospace"><tspan dy="4.2166666984558105">3</tspan></text><text style="text-anchor: middle; font: 12px Monaco, monospace;" x="55" y="500" text-anchor="middle" font-family="&quot;Arial&quot;" font-size="10px" stroke="none" fill="#bbbbbb" font="12px Monaco, monospace"><tspan dy="4.2166666984558105">2</tspan></text><text style="text-anchor: middle; font: 12px Monaco, monospace;" x="55" y="740" text-anchor="middle" font-family="&quot;Arial&quot;" font-size="10px" stroke="none" fill="#bbbbbb" font="12px Monaco, monospace"><tspan dy="4.2166666984558105">1</tspan></text><text style="text-anchor: middle; font: 12px Monaco, monospace;" x="55" y="1220" text-anchor="middle" font-family="&quot;Arial&quot;" font-size="10px" stroke="none" fill="#bbbbbb" font="12px Monaco, monospace"><tspan dy="4.2166666984558105">31</tspan></text><text style="text-anchor: middle; font: 12px Monaco, monospace;" x="20" y="1220" text-anchor="middle" font-family="&quot;Arial&quot;" font-size="10px" stroke="none" fill="#eeeeee" font="12px Monaco, monospace"><tspan dy="4.2166666984558105">Jan</tspan></text><text style="text-anchor: middle; font: 12px Monaco, monospace;" x="55" y="1550" text-anchor="middle" font-family="&quot;Arial&quot;" font-size="10px" stroke="none" fill="#bbbbbb" font="12px Monaco, monospace"><tspan dy="4.2166666984558105">30</tspan></text><circle cx="210" cy="20" r="3" fill="#cc0000" stroke="none" style=""></circle><rect x="230" y="10" width="20" height="20" rx="0" ry="0" fill="none" stroke="#cc0000" style="" stroke-width="2"></rect><image x="230" y="10" width="20" height="20" preserveAspectRatio="none" xlink:href="https://www.gravatar.com/avatar/5de66842a39e3707cd7f5289f737a4bf?s=40&amp;d=identicon"></image><text style="text-anchor: start; font: 14px Monaco, monospace;" x="255" y="20" text-anchor="start" font-family="&quot;Arial&quot;" font-size="10px" stroke="none" fill="#000000" font="14px Monaco, monospace"><tspan dy="4.59999942779541">develop freeConsultation page</tspan></text><path style="" fill="none" stroke="#cc0000" d="M210,25L210,50" stroke-width="2"></path><rect x="210" y="13" width="29.53333282470703" height="18.033333778381348" rx="4" ry="4" fill="#000000" stroke="none" style="fill-opacity: 0.5;" fill-opacity="0.5" transform="matrix(1,0,0,1,-44.5333,0)"></rect><path style="fill-opacity: 0.5;" fill="#000000" stroke="none" d="M205,20L195,16L195,24Z" fill-opacity="0.5"></path><text style="text-anchor: start; font: 10px Monaco, monospace;" x="214" y="20" text-anchor="start" font-family="&quot;Arial&quot;" font-size="10px" stroke="none" fill="#ffffff" font="10px Monaco, monospace" transform="matrix(1,0,0,1,-44.5333,0)"><tspan dy="3.4499993324279785">main</tspan><title>main</title></text><circle cx="210" cy="50" r="3" fill="#cc0000" stroke="none" style=""></circle><rect x="230" y="40" width="20" height="20" rx="0" ry="0" fill="none" stroke="#cc0000" style="" stroke-width="2"></rect><image x="230" y="40" width="20" height="20" preserveAspectRatio="none" xlink:href="https://www.gravatar.com/avatar/5de66842a39e3707cd7f5289f737a4bf?s=40&amp;d=identicon"></image><text style="text-anchor: start; font: 14px Monaco, monospace;" x="255" y="50" text-anchor="start" font-family="&quot;Arial&quot;" font-size="10px" stroke="none" fill="#000000" font="14px Monaco, monospace"><tspan dy="4.59999942779541">develop freeConsultation page</tspan></text><path style="" fill="none" stroke="#cc0000" d="M210,55L210,140" stroke-width="2"></path><circle cx="190" cy="80" r="3" fill="#00cc8f" stroke="none" style=""></circle><rect x="230" y="70" width="20" height="20" rx="0" ry="0" fill="none" stroke="#00cc8f" style="" stroke-width="2"></rect><image x="230" y="70" width="20" height="20" preserveAspectRatio="none" xlink:href="https://www.gravatar.com/avatar/5de66842a39e3707cd7f5289f737a4bf?s=40&amp;d=identicon"></image><text style="text-anchor: start; font: 14px Monaco, monospace;" x="255" y="80" text-anchor="start" font-family="&quot;Arial&quot;" font-size="10px" stroke="none" fill="#000000" font="14px Monaco, monospace"><tspan dy="4.59999942779541">develop freeConsultation page</tspan></text><path style="" fill="none" stroke="#00cc8f" d="M190,85L190,110" stroke-width="2"></path><rect x="190" y="73" width="47.93333435058594" height="18.033333778381348" rx="4" ry="4" fill="#000000" stroke="none" style="fill-opacity: 0.5;" fill-opacity="0.5" transform="matrix(1,0,0,1,-62.9333,0)"></rect><path style="fill-opacity: 0.5;" fill="#000000" stroke="none" d="M185,80L175,76L175,84Z" fill-opacity="0.5"></path><text style="text-anchor: start; font: 10px Monaco, monospace;" x="194" y="80" text-anchor="start" font-family="&quot;Arial&quot;" font-size="10px" stroke="none" fill="#ffffff" font="10px Monaco, monospace" transform="matrix(1,0,0,1,-62.9333,0)"><tspan dy="3.450000286102295">feature</tspan><title>feature</title></text><circle cx="190" cy="110" r="3" fill="#00cc8f" stroke="none" style=""></circle><rect x="230" y="100" width="20" height="20" rx="0" ry="0" fill="none" stroke="#00cc8f" style="" stroke-width="2"></rect><image x="230" y="100" width="20" height="20" preserveAspectRatio="none" xlink:href="https://www.gravatar.com/avatar/5de66842a39e3707cd7f5289f737a4bf?s=40&amp;d=identicon"></image><text style="text-anchor: start; font: 14px Monaco, monospace;" x="255" y="110" text-anchor="start" font-family="&quot;Arial&quot;" font-size="10px" stroke="none" fill="#000000" font="14px Monaco, monospace"><tspan dy="4.59999942779541">develop freeConsultation page</tspan></text><path style="" fill="none" stroke="#00cc8f" d="M193,113L200,120L200,555L210,560" stroke-width="2"></path><circle cx="210" cy="140" r="3" fill="#cc0000" stroke="none" style=""></circle><rect x="230" y="130" width="20" height="20" rx="0" ry="0" fill="none" stroke="#cc0000" style="" stroke-width="2"></rect><image x="230" y="130" width="20" height="20" preserveAspectRatio="none" xlink:href="https://www.gravatar.com/avatar/66c7ddb2d0bcbdabf031bf5f0670d86d?s=40&amp;d=identicon"></image><text style="text-anchor: start; font: 14px Monaco, monospace;" x="255" y="140" text-anchor="start" font-family="&quot;Arial&quot;" font-size="10px" stroke="none" fill="#000000" font="14px Monaco, monospace"><tspan dy="4.59999942779541">Merge pull request #10 from idealclover/develop</tspan></text><path style="" fill="none" stroke="#cc0000" d="M210,145L210,170" stroke-width="2"></path><path style="" fill="none" stroke="#00cc8f" d="M207,143L202,143L204,147L207,143L203,145L190,150L190,225L190,230" stroke-width="2"></path><circle cx="210" cy="170" r="3" fill="#cc0000" stroke="none" style=""></circle><rect x="230" y="160" width="20" height="20" rx="0" ry="0" fill="none" stroke="#cc0000" style="" stroke-width="2"></rect><image x="230" y="160" width="20" height="20" preserveAspectRatio="none" xlink:href="https://www.gravatar.com/avatar/66c7ddb2d0bcbdabf031bf5f0670d86d?s=40&amp;d=identicon"></image><text style="text-anchor: start; font: 14px Monaco, monospace;" x="255" y="170" text-anchor="start" font-family="&quot;Arial&quot;" font-size="10px" stroke="none" fill="#000000" font="14px Monaco, monospace"><tspan dy="4.600007057189941">Merge pull request #11 from wuhan2020/donation</tspan></text><path style="" fill="none" stroke="#cc0000" d="M210,175L210,320" stroke-width="2"></path><path style="" fill="none" stroke="#cc007a" d="M207,173L202,173L204,177L207,173L203,175L170,180L170,195L170,200" stroke-width="2"></path><circle cx="170" cy="200" r="3" fill="#cc007a" stroke="none" style=""></circle><rect x="230" y="190" width="20" height="20" rx="0" ry="0" fill="none" stroke="#cc007a" style="" stroke-width="2"></rect><image x="230" y="190" width="20" height="20" preserveAspectRatio="none" xlink:href="https://www.gravatar.com/avatar/682ec731fc37a5f457f8503785404fcc?s=40&amp;d=identicon"></image><text style="text-anchor: start; font: 14px Monaco, monospace;" x="255" y="200" text-anchor="start" font-family="&quot;Arial&quot;" font-size="10px" stroke="none" fill="#000000" font="14px Monaco, monospace"><tspan dy="4.600007057189941">Basic donation page</tspan></text><path style="" fill="none" stroke="#cc007a" d="M170,205L170,210L170,495L210,500" stroke-width="2"></path><circle cx="190" cy="230" r="3" fill="#00cc8f" stroke="none" style=""></circle><rect x="230" y="220" width="20" height="20" rx="0" ry="0" fill="none" stroke="#00cc8f" style="" stroke-width="2"></rect><image x="230" y="220" width="20" height="20" preserveAspectRatio="none" xlink:href="https://www.gravatar.com/avatar/4b795b3b030e320b1cfd683502b561f9?s=40&amp;d=identicon"></image><text style="text-anchor: start; font: 14px Monaco, monospace;" x="255" y="230" text-anchor="start" font-family="&quot;Arial&quot;" font-size="10px" stroke="none" fill="#000000" font="14px Monaco, monospace"><tspan dy="4.600007057189941">:bug: fixed README.md</tspan></text><path style="" fill="none" stroke="#00cc8f" d="M190,235L190,260" stroke-width="2"></path><circle cx="190" cy="260" r="3" fill="#00cc8f" stroke="none" style=""></circle><rect x="230" y="250" width="20" height="20" rx="0" ry="0" fill="none" stroke="#00cc8f" style="" stroke-width="2"></rect><image x="230" y="250" width="20" height="20" preserveAspectRatio="none" xlink:href="https://www.gravatar.com/avatar/4b795b3b030e320b1cfd683502b561f9?s=40&amp;d=identicon"></image><text style="text-anchor: start; font: 14px Monaco, monospace;" x="255" y="260" text-anchor="start" font-family="&quot;Arial&quot;" font-size="10px" stroke="none" fill="#000000" font="14px Monaco, monospace"><tspan dy="4.600007057189941">:see_no_evil: update .gitignore</tspan></text><path style="" fill="none" stroke="#00cc8f" d="M190,265L190,290" stroke-width="2"></path><circle cx="190" cy="290" r="3" fill="#00cc8f" stroke="none" style=""></circle><rect x="230" y="280" width="20" height="20" rx="0" ry="0" fill="none" stroke="#00cc8f" style="" stroke-width="2"></rect><image x="230" y="280" width="20" height="20" preserveAspectRatio="none" xlink:href="https://www.gravatar.com/avatar/4b795b3b030e320b1cfd683502b561f9?s=40&amp;d=identicon"></image><text style="text-anchor: start; font: 14px Monaco, monospace;" x="255" y="290" text-anchor="start" font-family="&quot;Arial&quot;" font-size="10px" stroke="none" fill="#000000" font="14px Monaco, monospace"><tspan dy="4.599991798400879">:fire: delete yarn-error.log</tspan></text><path style="" fill="none" stroke="#00cc8f" d="M190,295L190,300L190,315L210,320" stroke-width="2"></path><circle cx="210" cy="320" r="3" fill="#cc0000" stroke="none" style=""></circle><rect x="230" y="310" width="20" height="20" rx="0" ry="0" fill="none" stroke="#cc0000" style="" stroke-width="2"></rect><image x="230" y="310" width="20" height="20" preserveAspectRatio="none" xlink:href="https://www.gravatar.com/avatar/66c7ddb2d0bcbdabf031bf5f0670d86d?s=40&amp;d=identicon"></image><text style="text-anchor: start; font: 14px Monaco, monospace;" x="255" y="320" text-anchor="start" font-family="&quot;Arial&quot;" font-size="10px" stroke="none" fill="#000000" font="14px Monaco, monospace"><tspan dy="4.599991798400879">Merge pull request #9 from wuhan2020/eric/hospital_drawer</tspan></text><path style="" fill="none" stroke="#cc0000" d="M210,325L210,350" stroke-width="2"></path><path style="" fill="none" stroke="#00cc8f" d="M207,323L202,323L204,327L207,323L203,325L190,330L190,375L190,380" stroke-width="2"></path><circle cx="210" cy="350" r="3" fill="#cc0000" stroke="none" style=""></circle><rect x="230" y="340" width="20" height="20" rx="0" ry="0" fill="none" stroke="#cc0000" style="" stroke-width="2"></rect><image x="230" y="340" width="20" height="20" preserveAspectRatio="none" xlink:href="https://www.gravatar.com/avatar/66c7ddb2d0bcbdabf031bf5f0670d86d?s=40&amp;d=identicon"></image><text style="text-anchor: start; font: 14px Monaco, monospace;" x="255" y="350" text-anchor="start" font-family="&quot;Arial&quot;" font-size="10px" stroke="none" fill="#000000" font="14px Monaco, monospace"><tspan dy="4.599991798400879">Merge pull request #1 from LiuChangFreeman/develop</tspan></text><path style="" fill="none" stroke="#cc0000" d="M210,355L210,500" stroke-width="2"></path><path style="" fill="none" stroke="#49cc29" d="M207,353L202,353L204,357L207,353L203,355L150,360L150,435L150,440" stroke-width="2"></path><circle cx="190" cy="380" r="3" fill="#00cc8f" stroke="none" style=""></circle><rect x="230" y="370" width="20" height="20" rx="0" ry="0" fill="none" stroke="#00cc8f" style="" stroke-width="2"></rect><image x="230" y="370" width="20" height="20" preserveAspectRatio="none" xlink:href="https://www.gravatar.com/avatar/66c7ddb2d0bcbdabf031bf5f0670d86d?s=40&amp;d=identicon"></image><text style="text-anchor: start; font: 14px Monaco, monospace;" x="255" y="380" text-anchor="start" font-family="&quot;Arial&quot;" font-size="10px" stroke="none" fill="#000000" font="14px Monaco, monospace"><tspan dy="4.599991798400879">fixed amount bug in clinic detail</tspan></text><path style="" fill="none" stroke="#00cc8f" d="M190,385L190,410" stroke-width="2"></path><circle cx="190" cy="410" r="3" fill="#00cc8f" stroke="none" style=""></circle><rect x="230" y="400" width="20" height="20" rx="0" ry="0" fill="none" stroke="#00cc8f" style="" stroke-width="2"></rect><image x="230" y="400" width="20" height="20" preserveAspectRatio="none" xlink:href="https://www.gravatar.com/avatar/66c7ddb2d0bcbdabf031bf5f0670d86d?s=40&amp;d=identicon"></image><text style="text-anchor: start; font: 14px Monaco, monospace;" x="255" y="410" text-anchor="start" font-family="&quot;Arial&quot;" font-size="10px" stroke="none" fill="#000000" font="14px Monaco, monospace"><tspan dy="4.599991798400879">fixed drawer body padding</tspan></text><path style="" fill="none" stroke="#00cc8f" d="M190,415L190,470" stroke-width="2"></path><circle cx="150" cy="440" r="3" fill="#49cc29" stroke="none" style=""></circle><rect x="230" y="430" width="20" height="20" rx="0" ry="0" fill="none" stroke="#49cc29" style="" stroke-width="2"></rect><image x="230" y="430" width="20" height="20" preserveAspectRatio="none" xlink:href="https://www.gravatar.com/avatar/66c7ddb2d0bcbdabf031bf5f0670d86d?s=40&amp;d=identicon"></image><text style="text-anchor: start; font: 14px Monaco, monospace;" x="255" y="440" text-anchor="start" font-family="&quot;Arial&quot;" font-size="10px" stroke="none" fill="#000000" font="14px Monaco, monospace"><tspan dy="4.599991798400879">Merge branch 'develop' into develop</tspan></text><path style="" fill="none" stroke="#49cc29" d="M150,445L150,1130" stroke-width="2"></path><path style="" fill="none" stroke="#49cc29" d="M150,445L148,450L152,450L150,445L150,450L150,450L150,495L210,500" stroke-width="2"></path><circle cx="190" cy="470" r="3" fill="#00cc8f" stroke="none" style=""></circle><rect x="230" y="460" width="20" height="20" rx="0" ry="0" fill="none" stroke="#00cc8f" style="" stroke-width="2"></rect><image x="230" y="460" width="20" height="20" preserveAspectRatio="none" xlink:href="https://www.gravatar.com/avatar/66c7ddb2d0bcbdabf031bf5f0670d86d?s=40&amp;d=identicon"></image><text style="text-anchor: start; font: 14px Monaco, monospace;" x="255" y="470" text-anchor="start" font-family="&quot;Arial&quot;" font-size="10px" stroke="none" fill="#000000" font="14px Monaco, monospace"><tspan dy="4.599991798400879">updated to use drawer to show clinic page</tspan></text><path style="" fill="none" stroke="#00cc8f" d="M190,475L190,480L190,495L210,500" stroke-width="2"></path><circle cx="210" cy="500" r="3" fill="#cc0000" stroke="none" style=""></circle><rect x="230" y="490" width="20" height="20" rx="0" ry="0" fill="none" stroke="#cc0000" style="" stroke-width="2"></rect><image x="230" y="490" width="20" height="20" preserveAspectRatio="none" xlink:href="https://www.gravatar.com/avatar/682ec731fc37a5f457f8503785404fcc?s=40&amp;d=identicon"></image><text style="text-anchor: start; font: 14px Monaco, monospace;" x="255" y="500" text-anchor="start" font-family="&quot;Arial&quot;" font-size="10px" stroke="none" fill="#000000" font="14px Monaco, monospace"><tspan dy="4.599991798400879">Add hospital search and other style changes</tspan></text><path style="" fill="none" stroke="#cc0000" d="M210,505L210,530" stroke-width="2"></path><circle cx="210" cy="530" r="3" fill="#cc0000" stroke="none" style=""></circle><rect x="230" y="520" width="20" height="20" rx="0" ry="0" fill="none" stroke="#cc0000" style="" stroke-width="2"></rect><image x="230" y="520" width="20" height="20" preserveAspectRatio="none" xlink:href="https://www.gravatar.com/avatar/66c7ddb2d0bcbdabf031bf5f0670d86d?s=40&amp;d=identicon"></image><text style="text-anchor: start; font: 14px Monaco, monospace;" x="255" y="530" text-anchor="start" font-family="&quot;Arial&quot;" font-size="10px" stroke="none" fill="#000000" font="14px Monaco, monospace"><tspan dy="4.599991798400879">updated list style for single card in clinics</tspan></text><path style="" fill="none" stroke="#cc0000" d="M210,535L210,560" stroke-width="2"></path><circle cx="210" cy="560" r="3" fill="#cc0000" stroke="none" style=""></circle><rect x="230" y="550" width="20" height="20" rx="0" ry="0" fill="none" stroke="#cc0000" style="" stroke-width="2"></rect><image x="230" y="550" width="20" height="20" preserveAspectRatio="none" xlink:href="https://www.gravatar.com/avatar/66c7ddb2d0bcbdabf031bf5f0670d86d?s=40&amp;d=identicon"></image><text style="text-anchor: start; font: 14px Monaco, monospace;" x="255" y="560" text-anchor="start" font-family="&quot;Arial&quot;" font-size="10px" stroke="none" fill="#000000" font="14px Monaco, monospace"><tspan dy="4.599991798400879">updated getClinicUrl to use hospital keyword</tspan></text><path style="" fill="none" stroke="#cc0000" d="M210,565L210,590" stroke-width="2"></path><circle cx="210" cy="590" r="3" fill="#cc0000" stroke="none" style=""></circle><rect x="230" y="580" width="20" height="20" rx="0" ry="0" fill="none" stroke="#cc0000" style="" stroke-width="2"></rect><image x="230" y="580" width="20" height="20" preserveAspectRatio="none" xlink:href="https://www.gravatar.com/avatar/66c7ddb2d0bcbdabf031bf5f0670d86d?s=40&amp;d=identicon"></image><text style="text-anchor: start; font: 14px Monaco, monospace;" x="255" y="590" text-anchor="start" font-family="&quot;Arial&quot;" font-size="10px" stroke="none" fill="#000000" font="14px Monaco, monospace"><tspan dy="4.599991798400879">updated clinic -&gt; hostpital in routes, and use qiniu for data source prefix</tspan></text><path style="" fill="none" stroke="#cc0000" d="M210,595L210,620" stroke-width="2"></path><circle cx="210" cy="620" r="3" fill="#cc0000" stroke="none" style=""></circle><rect x="230" y="610" width="20" height="20" rx="0" ry="0" fill="none" stroke="#cc0000" style="" stroke-width="2"></rect><image x="230" y="610" width="20" height="20" preserveAspectRatio="none" xlink:href="https://www.gravatar.com/avatar/66c7ddb2d0bcbdabf031bf5f0670d86d?s=40&amp;d=identicon"></image><text style="text-anchor: start; font: 14px Monaco, monospace;" x="255" y="620" text-anchor="start" font-family="&quot;Arial&quot;" font-size="10px" stroke="none" fill="#000000" font="14px Monaco, monospace"><tspan dy="4.599991798400879">updated to use https://gitcdn.xyz/ for github content retrieving</tspan></text><path style="" fill="none" stroke="#cc0000" d="M210,625L210,650" stroke-width="2"></path><circle cx="210" cy="650" r="3" fill="#cc0000" stroke="none" style=""></circle><rect x="230" y="640" width="20" height="20" rx="0" ry="0" fill="none" stroke="#cc0000" style="" stroke-width="2"></rect><image x="230" y="640" width="20" height="20" preserveAspectRatio="none" xlink:href="https://www.gravatar.com/avatar/66c7ddb2d0bcbdabf031bf5f0670d86d?s=40&amp;d=identicon"></image><text style="text-anchor: start; font: 14px Monaco, monospace;" x="255" y="650" text-anchor="start" font-family="&quot;Arial&quot;" font-size="10px" stroke="none" fill="#000000" font="14px Monaco, monospace"><tspan dy="4.599991798400879">changed baseUrl to the one one gitee</tspan></text><path style="" fill="none" stroke="#cc0000" d="M210,655L210,680" stroke-width="2"></path><circle cx="210" cy="680" r="3" fill="#cc0000" stroke="none" style=""></circle><rect x="230" y="670" width="20" height="20" rx="0" ry="0" fill="none" stroke="#cc0000" style="" stroke-width="2"></rect><image x="230" y="670" width="20" height="20" preserveAspectRatio="none" xlink:href="https://www.gravatar.com/avatar/66c7ddb2d0bcbdabf031bf5f0670d86d?s=40&amp;d=identicon"></image><text style="text-anchor: start; font: 14px Monaco, monospace;" x="255" y="680" text-anchor="start" font-family="&quot;Arial&quot;" font-size="10px" stroke="none" fill="#000000" font="14px Monaco, monospace"><tspan dy="4.599991798400879">fixed styling issue in mobile</tspan></text><path style="" fill="none" stroke="#cc0000" d="M210,685L210,710" stroke-width="2"></path><circle cx="210" cy="710" r="3" fill="#cc0000" stroke="none" style=""></circle><rect x="230" y="700" width="20" height="20" rx="0" ry="0" fill="none" stroke="#cc0000" style="" stroke-width="2"></rect><image x="230" y="700" width="20" height="20" preserveAspectRatio="none" xlink:href="https://www.gravatar.com/avatar/66c7ddb2d0bcbdabf031bf5f0670d86d?s=40&amp;d=identicon"></image><text style="text-anchor: start; font: 14px Monaco, monospace;" x="255" y="710" text-anchor="start" font-family="&quot;Arial&quot;" font-size="10px" stroke="none" fill="#000000" font="14px Monaco, monospace"><tspan dy="4.599991798400879">use relative path for css/js resources</tspan></text><path style="" fill="none" stroke="#cc0000" d="M210,715L210,740" stroke-width="2"></path><circle cx="210" cy="740" r="3" fill="#cc0000" stroke="none" style=""></circle><rect x="230" y="730" width="20" height="20" rx="0" ry="0" fill="none" stroke="#cc0000" style="" stroke-width="2"></rect><image x="230" y="730" width="20" height="20" preserveAspectRatio="none" xlink:href="https://www.gravatar.com/avatar/66c7ddb2d0bcbdabf031bf5f0670d86d?s=40&amp;d=identicon"></image><text style="text-anchor: start; font: 14px Monaco, monospace;" x="255" y="740" text-anchor="start" font-family="&quot;Arial&quot;" font-size="10px" stroke="none" fill="#000000" font="14px Monaco, monospace"><tspan dy="4.599991798400879">use qiniu prefix for production resources</tspan></text><path style="" fill="none" stroke="#cc0000" d="M210,745L210,770" stroke-width="2"></path><circle cx="210" cy="770" r="3" fill="#cc0000" stroke="none" style=""></circle><rect x="230" y="760" width="20" height="20" rx="0" ry="0" fill="none" stroke="#cc0000" style="" stroke-width="2"></rect><image x="230" y="760" width="20" height="20" preserveAspectRatio="none" xlink:href="https://www.gravatar.com/avatar/66c7ddb2d0bcbdabf031bf5f0670d86d?s=40&amp;d=identicon"></image><text style="text-anchor: start; font: 14px Monaco, monospace;" x="255" y="770" text-anchor="start" font-family="&quot;Arial&quot;" font-size="10px" stroke="none" fill="#000000" font="14px Monaco, monospace"><tspan dy="4.599991798400879">polish up dep and devDep in package.json</tspan></text><path style="" fill="none" stroke="#cc0000" d="M210,775L210,800" stroke-width="2"></path><circle cx="210" cy="800" r="3" fill="#cc0000" stroke="none" style=""></circle><rect x="230" y="790" width="20" height="20" rx="0" ry="0" fill="none" stroke="#cc0000" style="" stroke-width="2"></rect><image x="230" y="790" width="20" height="20" preserveAspectRatio="none" xlink:href="https://www.gravatar.com/avatar/66c7ddb2d0bcbdabf031bf5f0670d86d?s=40&amp;d=identicon"></image><text style="text-anchor: start; font: 14px Monaco, monospace;" x="255" y="800" text-anchor="start" font-family="&quot;Arial&quot;" font-size="10px" stroke="none" fill="#000000" font="14px Monaco, monospace"><tspan dy="4.599991798400879">remove define plugin for NODE_ENV from webpack config</tspan></text><path style="" fill="none" stroke="#cc0000" d="M210,805L210,830" stroke-width="2"></path><circle cx="210" cy="830" r="3" fill="#cc0000" stroke="none" style=""></circle><rect x="230" y="820" width="20" height="20" rx="0" ry="0" fill="none" stroke="#cc0000" style="" stroke-width="2"></rect><image x="230" y="820" width="20" height="20" preserveAspectRatio="none" xlink:href="https://www.gravatar.com/avatar/66c7ddb2d0bcbdabf031bf5f0670d86d?s=40&amp;d=identicon"></image><text style="text-anchor: start; font: 14px Monaco, monospace;" x="255" y="830" text-anchor="start" font-family="&quot;Arial&quot;" font-size="10px" stroke="none" fill="#000000" font="14px Monaco, monospace"><tspan dy="4.599991798400879">added build scripts</tspan></text><path style="" fill="none" stroke="#cc0000" d="M210,835L210,860" stroke-width="2"></path><circle cx="210" cy="860" r="3" fill="#cc0000" stroke="none" style=""></circle><rect x="230" y="850" width="20" height="20" rx="0" ry="0" fill="none" stroke="#cc0000" style="" stroke-width="2"></rect><image x="230" y="850" width="20" height="20" preserveAspectRatio="none" xlink:href="https://www.gravatar.com/avatar/66c7ddb2d0bcbdabf031bf5f0670d86d?s=40&amp;d=identicon"></image><text style="text-anchor: start; font: 14px Monaco, monospace;" x="255" y="860" text-anchor="start" font-family="&quot;Arial&quot;" font-size="10px" stroke="none" fill="#000000" font="14px Monaco, monospace"><tspan dy="4.599991798400879">use Promise.all to preserve fetched clinic list order</tspan></text><path style="" fill="none" stroke="#cc0000" d="M210,865L210,890" stroke-width="2"></path><circle cx="210" cy="890" r="3" fill="#cc0000" stroke="none" style=""></circle><rect x="230" y="880" width="20" height="20" rx="0" ry="0" fill="none" stroke="#cc0000" style="" stroke-width="2"></rect><image x="230" y="880" width="20" height="20" preserveAspectRatio="none" xlink:href="https://www.gravatar.com/avatar/66c7ddb2d0bcbdabf031bf5f0670d86d?s=40&amp;d=identicon"></image><text style="text-anchor: start; font: 14px Monaco, monospace;" x="255" y="890" text-anchor="start" font-family="&quot;Arial&quot;" font-size="10px" stroke="none" fill="#000000" font="14px Monaco, monospace"><tspan dy="4.599991798400879">removed treatment and news feed from footer</tspan></text><path style="" fill="none" stroke="#cc0000" d="M210,895L210,920" stroke-width="2"></path><circle cx="210" cy="920" r="3" fill="#cc0000" stroke="none" style=""></circle><rect x="230" y="910" width="20" height="20" rx="0" ry="0" fill="none" stroke="#cc0000" style="" stroke-width="2"></rect><image x="230" y="910" width="20" height="20" preserveAspectRatio="none" xlink:href="https://www.gravatar.com/avatar/66c7ddb2d0bcbdabf031bf5f0670d86d?s=40&amp;d=identicon"></image><text style="text-anchor: start; font: 14px Monaco, monospace;" x="255" y="920" text-anchor="start" font-family="&quot;Arial&quot;" font-size="10px" stroke="none" fill="#000000" font="14px Monaco, monospace"><tspan dy="4.599991798400879">fixed responsive issue in nav</tspan></text><path style="" fill="none" stroke="#cc0000" d="M210,925L210,950" stroke-width="2"></path><circle cx="210" cy="950" r="3" fill="#cc0000" stroke="none" style=""></circle><rect x="230" y="940" width="20" height="20" rx="0" ry="0" fill="none" stroke="#cc0000" style="" stroke-width="2"></rect><image x="230" y="940" width="20" height="20" preserveAspectRatio="none" xlink:href="https://www.gravatar.com/avatar/66c7ddb2d0bcbdabf031bf5f0670d86d?s=40&amp;d=identicon"></image><text style="text-anchor: start; font: 14px Monaco, monospace;" x="255" y="950" text-anchor="start" font-family="&quot;Arial&quot;" font-size="10px" stroke="none" fill="#000000" font="14px Monaco, monospace"><tspan dy="4.599991798400879">fixed issues before first launch: remove buttons/interactions that are not ready, display address in clinic page, and support interaction with address, also fix redirects to both project homepage and github page</tspan></text><path style="" fill="none" stroke="#cc0000" d="M210,955L210,980" stroke-width="2"></path><circle cx="210" cy="980" r="3" fill="#cc0000" stroke="none" style=""></circle><rect x="230" y="970" width="20" height="20" rx="0" ry="0" fill="none" stroke="#cc0000" style="" stroke-width="2"></rect><image x="230" y="970" width="20" height="20" preserveAspectRatio="none" xlink:href="https://www.gravatar.com/avatar/66c7ddb2d0bcbdabf031bf5f0670d86d?s=40&amp;d=identicon"></image><text style="text-anchor: start; font: 14px Monaco, monospace;" x="255" y="980" text-anchor="start" font-family="&quot;Arial&quot;" font-size="10px" stroke="none" fill="#000000" font="14px Monaco, monospace"><tspan dy="4.599991798400879">show 1 as unlimited in clinic supply table</tspan></text><path style="" fill="none" stroke="#cc0000" d="M210,985L210,1010" stroke-width="2"></path><circle cx="210" cy="1010" r="3" fill="#cc0000" stroke="none" style=""></circle><rect x="230" y="1000" width="20" height="20" rx="0" ry="0" fill="none" stroke="#cc0000" style="" stroke-width="2"></rect><image x="230" y="1000" width="20" height="20" preserveAspectRatio="none" xlink:href="https://www.gravatar.com/avatar/66c7ddb2d0bcbdabf031bf5f0670d86d?s=40&amp;d=identicon"></image><text style="text-anchor: start; font: 14px Monaco, monospace;" x="255" y="1010" text-anchor="start" font-family="&quot;Arial&quot;" font-size="10px" stroke="none" fill="#000000" font="14px Monaco, monospace"><tspan dy="4.599991798400879">fixed bug for showing invalid other_supplies</tspan></text><path style="" fill="none" stroke="#cc0000" d="M210,1015L210,1040" stroke-width="2"></path><circle cx="210" cy="1040" r="3" fill="#cc0000" stroke="none" style=""></circle><rect x="230" y="1030" width="20" height="20" rx="0" ry="0" fill="none" stroke="#cc0000" style="" stroke-width="2"></rect><image x="230" y="1030" width="20" height="20" preserveAspectRatio="none" xlink:href="https://www.gravatar.com/avatar/66c7ddb2d0bcbdabf031bf5f0670d86d?s=40&amp;d=identicon"></image><text style="text-anchor: start; font: 14px Monaco, monospace;" x="255" y="1040" text-anchor="start" font-family="&quot;Arial&quot;" font-size="10px" stroke="none" fill="#000000" font="14px Monaco, monospace"><tspan dy="4.599991798400879">finished clinic page</tspan></text><path style="" fill="none" stroke="#cc0000" d="M210,1045L210,1070" stroke-width="2"></path><circle cx="210" cy="1070" r="3" fill="#cc0000" stroke="none" style=""></circle><rect x="230" y="1060" width="20" height="20" rx="0" ry="0" fill="none" stroke="#cc0000" style="" stroke-width="2"></rect><image x="230" y="1060" width="20" height="20" preserveAspectRatio="none" xlink:href="https://www.gravatar.com/avatar/66c7ddb2d0bcbdabf031bf5f0670d86d?s=40&amp;d=identicon"></image><text style="text-anchor: start; font: 14px Monaco, monospace;" x="255" y="1070" text-anchor="start" font-family="&quot;Arial&quot;" font-size="10px" stroke="none" fill="#000000" font="14px Monaco, monospace"><tspan dy="4.599991798400879">updated to fetch and use datasources</tspan></text><path style="" fill="none" stroke="#cc0000" d="M210,1075L210,1100" stroke-width="2"></path><circle cx="210" cy="1100" r="3" fill="#cc0000" stroke="none" style=""></circle><rect x="230" y="1090" width="20" height="20" rx="0" ry="0" fill="none" stroke="#cc0000" style="" stroke-width="2"></rect><image x="230" y="1090" width="20" height="20" preserveAspectRatio="none" xlink:href="https://www.gravatar.com/avatar/66c7ddb2d0bcbdabf031bf5f0670d86d?s=40&amp;d=identicon"></image><text style="text-anchor: start; font: 14px Monaco, monospace;" x="255" y="1100" text-anchor="start" font-family="&quot;Arial&quot;" font-size="10px" stroke="none" fill="#000000" font="14px Monaco, monospace"><tspan dy="4.599991798400879">removed hotel and production from pages and added travel_hotel</tspan></text><path style="" fill="none" stroke="#cc0000" d="M210,1105L210,1160" stroke-width="2"></path><circle cx="150" cy="1130" r="3" fill="#49cc29" stroke="none" style=""></circle><rect x="230" y="1120" width="20" height="20" rx="0" ry="0" fill="none" stroke="#49cc29" style="" stroke-width="2"></rect><image x="230" y="1120" width="20" height="20" preserveAspectRatio="none" xlink:href="https://www.gravatar.com/avatar/a1212b21f65ff1ad83fa4544768b000c?s=40&amp;d=identicon"></image><text style="text-anchor: start; font: 14px Monaco, monospace;" x="255" y="1130" text-anchor="start" font-family="&quot;Arial&quot;" font-size="10px" stroke="none" fill="#000000" font="14px Monaco, monospace"><tspan dy="4.599991798400879">ignore .idea</tspan></text><path style="" fill="none" stroke="#49cc29" d="M150,1135L150,1140L150,1245L210,1250" stroke-width="2"></path><circle cx="210" cy="1160" r="3" fill="#cc0000" stroke="none" style=""></circle><rect x="230" y="1150" width="20" height="20" rx="0" ry="0" fill="none" stroke="#cc0000" style="" stroke-width="2"></rect><image x="230" y="1150" width="20" height="20" preserveAspectRatio="none" xlink:href="https://www.gravatar.com/avatar/66c7ddb2d0bcbdabf031bf5f0670d86d?s=40&amp;d=identicon"></image><text style="text-anchor: start; font: 14px Monaco, monospace;" x="255" y="1160" text-anchor="start" font-family="&quot;Arial&quot;" font-size="10px" stroke="none" fill="#000000" font="14px Monaco, monospace"><tspan dy="4.599991798400879">fixed remark type</tspan></text><path style="" fill="none" stroke="#cc0000" d="M210,1165L210,1190" stroke-width="2"></path><circle cx="210" cy="1190" r="3" fill="#cc0000" stroke="none" style=""></circle><rect x="230" y="1180" width="20" height="20" rx="0" ry="0" fill="none" stroke="#cc0000" style="" stroke-width="2"></rect><image x="230" y="1180" width="20" height="20" preserveAspectRatio="none" xlink:href="https://www.gravatar.com/avatar/66c7ddb2d0bcbdabf031bf5f0670d86d?s=40&amp;d=identicon"></image><text style="text-anchor: start; font: 14px Monaco, monospace;" x="255" y="1190" text-anchor="start" font-family="&quot;Arial&quot;" font-size="10px" stroke="none" fill="#000000" font="14px Monaco, monospace"><tspan dy="4.599991798400879">support district filter in clinic list</tspan></text><path style="" fill="none" stroke="#cc0000" d="M210,1195L210,1220" stroke-width="2"></path><circle cx="210" cy="20" r="10" fill="#000000" stroke="#000" style="opacity: 0; cursor: pointer;" opacity="0"></circle><circle cx="210" cy="50" r="10" fill="#000000" stroke="#000" style="opacity: 0; cursor: pointer;" opacity="0"></circle><circle cx="190" cy="80" r="10" fill="#000000" stroke="#000" style="opacity: 0; cursor: pointer;" opacity="0"></circle><circle cx="190" cy="110" r="10" fill="#000000" stroke="#000" style="opacity: 0; cursor: pointer;" opacity="0"></circle><circle cx="210" cy="140" r="10" fill="#000000" stroke="#000" style="opacity: 0; cursor: pointer;" opacity="0"></circle><circle cx="210" cy="170" r="10" fill="#000000" stroke="#000" style="opacity: 0; cursor: pointer;" opacity="0"></circle><circle cx="170" cy="200" r="10" fill="#000000" stroke="#000" style="opacity: 0; cursor: pointer;" opacity="0"></circle><circle cx="190" cy="230" r="10" fill="#000000" stroke="#000" style="opacity: 0; cursor: pointer;" opacity="0"></circle><circle cx="190" cy="260" r="10" fill="#000000" stroke="#000" style="opacity: 0; cursor: pointer;" opacity="0"></circle><circle cx="190" cy="290" r="10" fill="#000000" stroke="#000" style="opacity: 0; cursor: pointer;" opacity="0"></circle><circle cx="210" cy="320" r="10" fill="#000000" stroke="#000" style="opacity: 0; cursor: pointer;" opacity="0"></circle><circle cx="210" cy="350" r="10" fill="#000000" stroke="#000" style="opacity: 0; cursor: pointer;" opacity="0"></circle><circle cx="190" cy="380" r="10" fill="#000000" stroke="#000" style="opacity: 0; cursor: pointer;" opacity="0"></circle><circle cx="190" cy="410" r="10" fill="#000000" stroke="#000" style="opacity: 0; cursor: pointer;" opacity="0"></circle><circle cx="150" cy="440" r="10" fill="#000000" stroke="#000" style="opacity: 0; cursor: pointer;" opacity="0"></circle><circle cx="190" cy="470" r="10" fill="#000000" stroke="#000" style="opacity: 0; cursor: pointer;" opacity="0"></circle><circle cx="210" cy="500" r="10" fill="#000000" stroke="#000" style="opacity: 0; cursor: pointer;" opacity="0"></circle><circle cx="210" cy="530" r="10" fill="#000000" stroke="#000" style="opacity: 0; cursor: pointer;" opacity="0"></circle><circle cx="210" cy="560" r="10" fill="#000000" stroke="#000" style="opacity: 0; cursor: pointer;" opacity="0"></circle><circle cx="210" cy="590" r="10" fill="#000000" stroke="#000" style="opacity: 0; cursor: pointer;" opacity="0"></circle><circle cx="210" cy="620" r="10" fill="#000000" stroke="#000" style="opacity: 0; cursor: pointer;" opacity="0"></circle><circle cx="210" cy="650" r="10" fill="#000000" stroke="#000" style="opacity: 0; cursor: pointer;" opacity="0"></circle><circle cx="210" cy="680" r="10" fill="#000000" stroke="#000" style="opacity: 0; cursor: pointer;" opacity="0"></circle><circle cx="210" cy="710" r="10" fill="#000000" stroke="#000" style="opacity: 0; cursor: pointer;" opacity="0"></circle><circle cx="210" cy="740" r="10" fill="#000000" stroke="#000" style="opacity: 0; cursor: pointer;" opacity="0"></circle><circle cx="210" cy="770" r="10" fill="#000000" stroke="#000" style="opacity: 0; cursor: pointer;" opacity="0"></circle><circle cx="210" cy="800" r="10" fill="#000000" stroke="#000" style="opacity: 0; cursor: pointer;" opacity="0"></circle><circle cx="210" cy="830" r="10" fill="#000000" stroke="#000" style="opacity: 0; cursor: pointer;" opacity="0"></circle><circle cx="210" cy="860" r="10" fill="#000000" stroke="#000" style="opacity: 0; cursor: pointer;" opacity="0"></circle><circle cx="210" cy="890" r="10" fill="#000000" stroke="#000" style="opacity: 0; cursor: pointer;" opacity="0"></circle><circle cx="210" cy="920" r="10" fill="#000000" stroke="#000" style="opacity: 0; cursor: pointer;" opacity="0"></circle><circle cx="210" cy="950" r="10" fill="#000000" stroke="#000" style="opacity: 0; cursor: pointer;" opacity="0"></circle><circle cx="210" cy="980" r="10" fill="#000000" stroke="#000" style="opacity: 0; cursor: pointer;" opacity="0"></circle><circle cx="210" cy="1010" r="10" fill="#000000" stroke="#000" style="opacity: 0; cursor: pointer;" opacity="0"></circle><circle cx="210" cy="1040" r="10" fill="#000000" stroke="#000" style="opacity: 0; cursor: pointer;" opacity="0"></circle><circle cx="210" cy="1070" r="10" fill="#000000" stroke="#000" style="opacity: 0; cursor: pointer;" opacity="0"></circle><circle cx="210" cy="1100" r="10" fill="#000000" stroke="#000" style="opacity: 0; cursor: pointer;" opacity="0"></circle><circle cx="150" cy="1130" r="10" fill="#000000" stroke="#000" style="opacity: 0; cursor: pointer;" opacity="0"></circle><circle cx="210" cy="1160" r="10" fill="#000000" stroke="#000" style="opacity: 0; cursor: pointer;" opacity="0"></circle><circle cx="210" cy="1190" r="10" fill="#000000" stroke="#000" style="opacity: 0; cursor: pointer;" opacity="0"></circle></svg>